<svg width="206" height="18" viewBox="0 0 206 18" fill="none" xmlns="http://www.w3.org/2000/svg">
<path d="M0.292969 15.9219L3.23438 4.76562C4.03125 1.72656 6.625 0.203125 11.0156 0.195312H17.332C17.6211 0.195312 17.8594 0.304687 18.0469 0.523438C18.2422 0.742188 18.3398 0.996094 18.3398 1.28516V15.9219C18.3398 16.2266 18.2305 16.4844 18.0117 16.6953C17.793 16.8984 17.5312 17 17.2266 17H15.0234C14.7031 17 14.4375 16.8984 14.2266 16.6953C14.0234 16.4844 13.9219 16.2188 13.9219 15.8984V12.9453H5.58984L4.80469 15.8984C4.72656 16.2188 4.55078 16.4844 4.27734 16.6953C4.00391 16.8984 3.71484 17 3.41016 17H1.10156C0.796875 17 0.578125 16.9141 0.445312 16.7422C0.3125 16.5625 0.246094 16.4062 0.246094 16.2734C0.253906 16.1406 0.269531 16.0234 0.292969 15.9219ZM6.45703 9.62891H13.9219V3.51172H10.582C9.83203 3.51172 9.17578 3.72656 8.61328 4.15625C8.05859 4.57812 7.68359 5.14844 7.48828 5.86719L6.45703 9.62891ZM21.6914 15.8984V1.30859C21.6914 1.00391 21.7969 0.742188 22.0078 0.523438C22.2188 0.304687 22.4766 0.195312 22.7812 0.195312H26.2266C26.5 0.195312 26.7891 0.304687 27.0938 0.523438C27.3984 0.742188 27.6484 1.00391 27.8438 1.30859L34.9219 12.1953V1.28516C34.9219 0.980469 35.0273 0.722656 35.2383 0.511719C35.457 0.300781 35.7188 0.195312 36.0234 0.195312H38.0391C38.3438 0.195312 38.6016 0.300781 38.8125 0.511719C39.0312 0.722656 39.1406 0.988281 39.1406 1.30859V15.8984C39.1406 16.2031 39.0312 16.4648 38.8125 16.6836C38.6016 16.8945 38.3438 17 38.0391 17H34.1484C33.8438 17 33.5312 16.8945 33.2109 16.6836C32.8906 16.4648 32.6367 16.2031 32.4492 15.8984L25.9688 5.84375V15.8984C25.9688 16.2031 25.8594 16.4648 25.6406 16.6836C25.4297 16.8945 25.1719 17 24.8672 17H22.8047C22.5 17 22.2383 16.8945 22.0195 16.6836C21.8008 16.4648 21.6914 16.2031 21.6914 15.8984ZM42.5039 15.9219V1.30859C42.5039 1.00391 42.6133 0.742188 42.832 0.523438C43.0508 0.304687 43.3125 0.195312 43.6172 0.195312H45.7969C46.1172 0.195312 46.3828 0.304687 46.5938 0.523438C46.8125 0.742188 46.9219 1.00391 46.9219 1.30859V15.8984C46.9219 16.2031 46.8086 16.4648 46.582 16.6836C46.3633 16.8945 46.1016 17 45.7969 17H43.6172C43.3125 17 43.0508 16.8984 42.832 16.6953C42.6133 16.4844 42.5039 16.2266 42.5039 15.9219ZM50.2852 1.30859C50.2852 1.00391 50.3945 0.742188 50.6133 0.523438C50.832 0.304687 51.0938 0.195312 51.3984 0.195312H60.9258C63.2617 0.195312 64.9844 0.867187 66.0938 2.21094C66.7109 2.95312 67.0195 3.90234 67.0195 5.05859C67.0195 6.20703 66.4922 7.21094 65.4375 8.07031C66.9375 8.875 67.6875 10.125 67.6875 11.8203C67.6875 13.5156 67.0859 14.8047 65.8828 15.6875C64.6875 16.5625 63.2188 17 61.4766 17H51.3984C51.0938 17 50.832 16.8945 50.6133 16.6836C50.3945 16.4648 50.2852 16.2031 50.2852 15.8984V1.30859ZM54.7031 13.8359H61.4062C62.0078 13.8359 62.4688 13.6562 62.7891 13.2969C63.1094 12.9375 63.2695 12.4453 63.2695 11.8203C63.2695 11.1953 63.1094 10.7031 62.7891 10.3438C62.4688 9.98438 62.0078 9.80469 61.4062 9.80469H54.7031V13.8359ZM54.7031 6.72266H60.9727C61.4648 6.72266 61.8594 6.57812 62.1562 6.28906C62.4531 5.99219 62.6016 5.58203 62.6016 5.05859C62.6016 4.52734 62.4531 4.11328 62.1562 3.81641C61.8594 3.51953 61.4648 3.37109 60.9727 3.37109H54.7031V6.72266ZM68.707 15.9219L71.6484 4.76562C72.4453 1.72656 75.0391 0.203125 79.4297 0.195312H85.7461C86.0352 0.195312 86.2734 0.304687 86.4609 0.523438C86.6562 0.742188 86.7539 0.996094 86.7539 1.28516V15.9219C86.7539 16.2266 86.6445 16.4844 86.4258 16.6953C86.207 16.8984 85.9453 17 85.6406 17H83.4375C83.1172 17 82.8516 16.8984 82.6406 16.6953C82.4375 16.4844 82.3359 16.2188 82.3359 15.8984V12.9453H74.0039L73.2188 15.8984C73.1406 16.2188 72.9648 16.4844 72.6914 16.6953C72.418 16.8984 72.1289 17 71.8242 17H69.5156C69.2109 17 68.9922 16.9141 68.8594 16.7422C68.7266 16.5625 68.6602 16.4062 68.6602 16.2734C68.668 16.1406 68.6836 16.0234 68.707 15.9219ZM74.8711 9.62891H82.3359V3.51172H78.9961C78.2461 3.51172 77.5898 3.72656 77.0273 4.15625C76.4727 4.57812 76.0977 5.14844 75.9023 5.86719L74.8711 9.62891ZM90.1055 15.9219V1.33203C90.1055 1.01172 90.2148 0.742188 90.4336 0.523438C90.6523 0.304687 90.9141 0.195312 91.2188 0.195312H93.4219C93.7266 0.195312 93.9844 0.304687 94.1953 0.523438C94.4141 0.742188 94.5234 1.01172 94.5234 1.33203V13.6836H104.73C105.035 13.6836 105.293 13.793 105.504 14.0117C105.723 14.2305 105.832 14.4922 105.832 14.7969V15.8984C105.832 16.2031 105.723 16.4648 105.504 16.6836C105.293 16.8945 105.035 17 104.73 17H91.2188C90.9141 17 90.6523 16.8984 90.4336 16.6953C90.2148 16.4844 90.1055 16.2266 90.1055 15.9219ZM133.617 16.4961C133.617 16.832 133.418 17 133.02 17H130.207C129.91 17 129.582 16.8945 129.223 16.6836C128.871 16.4648 128.602 16.2031 128.414 15.8984L126.422 12.7812C125.602 11.5 124.609 10.8594 123.445 10.8594H120.586V15.8984C120.586 16.2031 120.477 16.4648 120.258 16.6836C120.047 16.8945 119.789 17 119.484 17H117.281C116.977 17 116.715 16.8945 116.496 16.6836C116.277 16.4648 116.168 16.2031 116.168 15.8984V1.30859C116.168 1.00391 116.273 0.742188 116.484 0.523438C116.695 0.304687 116.953 0.195312 117.258 0.195312H126.926C128.715 0.195312 130.18 0.675781 131.32 1.63672C132.469 2.59766 133.043 3.89453 133.043 5.52734C133.043 7.80078 131.57 9.22656 128.625 9.80469C129.094 9.97656 129.527 10.2734 129.926 10.6953C130.324 11.1094 130.781 11.7148 131.297 12.5117L133.43 15.8984C133.555 16.1172 133.617 16.3164 133.617 16.4961ZM120.586 7.54297H125.578C126.383 7.54297 127.09 7.38281 127.699 7.0625C128.316 6.74219 128.625 6.23047 128.625 5.52734C128.625 4.82422 128.316 4.3125 127.699 3.99219C127.09 3.67188 126.383 3.51172 125.578 3.51172H120.586V7.54297ZM135.574 15.875V1.28516C135.574 0.980469 135.684 0.722656 135.902 0.511719C136.121 0.300781 136.383 0.195312 136.688 0.195312H150.199C150.504 0.195312 150.762 0.304687 150.973 0.523438C151.191 0.742188 151.301 1.00391 151.301 1.30859V2.41016C151.301 2.71484 151.191 2.97656 150.973 3.19531C150.762 3.40625 150.504 3.51172 150.199 3.51172H139.992V6.92188H148.781C149.086 6.92188 149.344 7.03125 149.555 7.25C149.773 7.46094 149.883 7.71875 149.883 8.02344V9.125C149.883 9.42969 149.773 9.69141 149.555 9.91016C149.344 10.1211 149.086 10.2266 148.781 10.2266H139.992V13.6836H150.176C150.473 13.6836 150.727 13.7891 150.938 14C151.148 14.2109 151.254 14.4688 151.254 14.7734V15.8984C151.254 16.2031 151.145 16.4648 150.926 16.6836C150.707 16.8945 150.445 17 150.141 17H136.688C136.383 17 136.121 16.8945 135.902 16.6836C135.684 16.4648 135.574 16.1953 135.574 15.875ZM152.016 0.757812C152.016 0.382812 152.219 0.195312 152.625 0.195312H154.852C155.734 0.195312 156.414 0.566406 156.891 1.30859L160.688 7.15625L164.473 1.30859C164.957 0.566406 165.637 0.195312 166.512 0.195312H168.75C169.148 0.195312 169.348 0.382812 169.348 0.757812C169.348 0.929688 169.285 1.11328 169.16 1.30859L162.891 11V15.9219C162.891 16.2266 162.781 16.4844 162.562 16.6953C162.352 16.8984 162.094 17 161.789 17H159.586C159.281 17 159.02 16.8984 158.801 16.6953C158.582 16.4844 158.473 16.2266 158.473 15.9219V11L152.215 1.30859C152.082 1.11328 152.016 0.929688 152.016 0.757812ZM171.27 15.875V1.28516C171.27 0.980469 171.379 0.722656 171.598 0.511719C171.816 0.300781 172.078 0.195312 172.383 0.195312H185.895C186.199 0.195312 186.457 0.304687 186.668 0.523438C186.887 0.742188 186.996 1.00391 186.996 1.30859V2.41016C186.996 2.71484 186.887 2.97656 186.668 3.19531C186.457 3.40625 186.199 3.51172 185.895 3.51172H175.688V6.92188H184.477C184.781 6.92188 185.039 7.03125 185.25 7.25C185.469 7.46094 185.578 7.71875 185.578 8.02344V9.125C185.578 9.42969 185.469 9.69141 185.25 9.91016C185.039 10.1211 184.781 10.2266 184.477 10.2266H175.688V13.6836H185.871C186.168 13.6836 186.422 13.7891 186.633 14C186.844 14.2109 186.949 14.4688 186.949 14.7734V15.8984C186.949 16.2031 186.84 16.4648 186.621 16.6836C186.402 16.8945 186.141 17 185.836 17H172.383C172.078 17 171.816 16.8945 171.598 16.6836C171.379 16.4648 171.27 16.1953 171.27 15.875ZM188.191 12.6992C188.191 12.2383 188.328 11.9102 188.602 11.7148C188.875 11.5117 189.141 11.4102 189.398 11.4102H190.793C191.496 11.4102 192.031 11.793 192.398 12.5586C192.766 13.3242 193.59 13.707 194.871 13.707L198.973 13.7891C200.348 13.7891 201.035 13.3398 201.035 12.4414C201.035 11.7617 200.195 11.2266 198.516 10.8359C197.766 10.6562 196.938 10.4805 196.031 10.3086C195.125 10.1289 194.223 9.90625 193.324 9.64062C192.434 9.375 191.613 9.0625 190.863 8.70312C190.113 8.34375 189.504 7.85156 189.035 7.22656C188.574 6.59375 188.344 5.85156 188.344 5C188.344 3.42969 188.902 2.22266 190.02 1.37891C191.137 0.527344 193.059 0.101562 195.785 0.101562L198.762 0.171875C200.363 0.171875 201.805 0.585937 203.086 1.41406C204.375 2.23438 205.02 3.26172 205.02 4.49609C205.02 4.95703 204.883 5.28906 204.609 5.49219C204.336 5.69531 204.074 5.79688 203.824 5.79688H202.43C201.727 5.79688 201.191 5.41406 200.824 4.64844C200.457 3.875 199.633 3.48828 198.352 3.48828L194.824 3.41797C193.449 3.41797 192.762 3.86719 192.762 4.76562C192.762 5.25781 193.195 5.66016 194.062 5.97266C194.938 6.28516 195.992 6.5625 197.227 6.80469C198.469 7.03906 199.715 7.32422 200.965 7.66016C202.215 7.99609 203.273 8.55078 204.141 9.32422C205.016 10.0898 205.453 11.0469 205.453 12.1953C205.453 13.7656 204.891 14.9766 203.766 15.8281C202.648 16.6719 200.73 17.0938 198.012 17.0938L194.461 17.0234C192.859 17.0234 191.414 16.6133 190.125 15.793C188.836 14.9648 188.191 13.9336 188.191 12.6992Z" fill="white"/>
</svg>
